<?xml version="1.0" standalone="no"?><!DOCTYPE svg PUBLIC "-//W3C//DTD SVG 1.1//EN" "http://www.w3.org/Graphics/SVG/1.1/DTD/svg11.dtd"><svg t="1527931075390" class="icon" style="" viewBox="0 0 1024 1024" version="1.1" xmlns="http://www.w3.org/2000/svg" p-id="2672" xmlns:xlink="http://www.w3.org/1999/xlink" width="500" height="500"><defs><style type="text/css"></style></defs><path d="M1023.980809 512c0-266.63694-203.826766-485.659764-464.165755-509.77726a515.891205 515.891205 0 0 0-47.814301-2.22274c-14.958244 0-29.765972 0.651733-44.402865 1.915311C205.619407 24.416646 0 244.192425 0 512c0 267.836926 205.664938 487.631519 467.684435 510.092214a516.267495 516.267495 0 0 0 44.315565 1.907786c16.087864 0 32.002258-0.754083 47.71609-2.213332 260.386026-24.070836 464.264719-243.115862 464.264719-509.786668z m-178.759892 306.009948c-52.809915-26.155478-124.650275-23.734434-177.920015-55.339707v-53.389776c17.850402-28.270223 37.654496-54.595031 45.475288-92.900507 31.884479-31.399819 56.084759-74.430733 53.364566-126.51554-0.859821-16.799802-13.570113-30.064369-15.804894-45.47002-2.39508-16.430287 2.884632-32.749568 1.980033-47.43011-7.794828-125.300126-86.575087-210.365165-201.635259-229.309063h-67.21238c-108.102586 14.524759-191.022401 101.119789-201.635634 213.479334-1.83742 19.505321 2.537694 40.845051 0 61.299749-1.792641 14.639903-12.055173 25.069884-13.822603 41.499794-3.492339 32.39548 6.3051 61.045002 15.800378 83.035336 8.634706 19.944827 24.994626 30.560694 35.584906 49.410896 17.664138 31.440082 21.737468 69.680084 47.451559 92.900131v55.36981c-63.720041 31.300102-131.817453 27.854047-183.854846 55.338954-8.664056 4.579814-16.751637 10.32462-24.442987 16.764431-78.571795-85.467669-126.550158-199.505086-126.550158-324.754036 0-265.091144 214.899449-479.990969 479.991722-479.990969 265.090392 0 479.990593 214.899825 479.990593 479.990969 0 123.308051-46.504063 235.751884-122.921603 320.763114-7.256359-5.346315-15.001141-10.379182-23.838666-14.75279z" fill="#ffffff" p-id="2673"></path></svg>